<svg width="127" height="32" viewBox="0 0 127 32" fill="none" xmlns="http://www.w3.org/2000/svg">
<path d="M6.99997 8H19C19.4045 8 19.769 7.7565 19.924 7.383C20.079 7.009 19.9935 6.5795 19.707 6.293L13.707 0.293C13.5115 0.0975 13.256 0 13 0C12.744 0 12.4885 0.0975 12.293 0.293L6.29297 6.293C6.00697 6.579 5.92147 7.009 6.07597 7.383C6.23097 7.7565 6.59547 8 6.99997 8Z" fill="#2DD4BF"/>
<path d="M4.99997 14H21C21.4045 14 21.769 13.7565 21.924 13.383C22.079 13.009 21.9935 12.5795 21.707 12.293L18.4345 9.02051H7.56547L4.29297 12.293C4.00697 12.579 3.92147 13.009 4.07597 13.383C4.23097 13.7565 4.59547 14 4.99997 14Z" fill="#2DD4BF"/>
<path d="M11 31.5C11 31.7765 11.2235 32 11.5 32H14.5C14.7765 32 15 31.7765 15 31.5V27H11V31.5Z" fill="#2DD4BF"/>
<path d="M25.707 24.293L22.414 21H3.58597L0.292967 24.293C0.00696704 24.579 -0.0785329 25.009 0.075967 25.383C0.230967 25.7565 0.595467 26 0.999967 26H25C25.4045 26 25.769 25.7565 25.924 25.383C26.0785 25.009 25.993 24.579 25.707 24.293Z" fill="#2DD4BF"/>
<path d="M2.99997 20H23C23.4045 20 23.769 19.7565 23.924 19.383C24.079 19.009 23.9935 18.5795 23.707 18.293L20.414 15H5.58597L2.29297 18.293C2.00697 18.579 1.92147 19.009 2.07597 19.383C2.23097 19.7565 2.59547 20 2.99997 20Z" fill="#2DD4BF"/>
<path d="M40.7811 26.9253C39.1812 26.9253 37.7635 26.6418 36.5281 26.0747C35.2927 25.5076 34.3206 24.6773 33.6118 23.5836C32.9232 22.4698 32.5789 21.123 32.5789 19.5433V18.7838H35.8294V19.5433C35.8294 21.042 36.2749 22.166 37.1661 22.9153C38.0774 23.6647 39.2824 24.0393 40.7811 24.0393C42.3001 24.0393 43.4443 23.7254 44.2139 23.0976C44.9835 22.4495 45.3683 21.6192 45.3683 20.6065C45.3683 19.9382 45.186 19.3914 44.8215 18.9661C44.4569 18.5408 43.9405 18.2066 43.2722 17.9636C42.6038 17.7003 41.8039 17.4573 40.8723 17.2345L39.7482 16.9611C38.3913 16.6371 37.2066 16.2421 36.1939 15.7763C35.2016 15.2903 34.432 14.6523 33.8852 13.8625C33.3383 13.0726 33.0649 12.06 33.0649 10.8246C33.0649 9.56896 33.3687 8.49558 33.9763 7.60447C34.6041 6.71336 35.4649 6.02478 36.5585 5.53872C37.6521 5.05266 38.9381 4.80963 40.4166 4.80963C41.895 4.80963 43.2114 5.06279 44.3658 5.5691C45.5404 6.07541 46.4619 6.82475 47.1303 7.81712C47.7986 8.80949 48.1328 10.055 48.1328 11.5537V12.6473H44.8822V11.5537C44.8822 10.6423 44.6898 9.90312 44.305 9.33605C43.9405 8.76898 43.4241 8.35381 42.7557 8.09053C42.0874 7.82725 41.3077 7.6956 40.4166 7.6956C39.1204 7.6956 38.1078 7.96901 37.3787 8.51583C36.6699 9.04239 36.3155 9.78161 36.3155 10.7335C36.3155 11.3815 36.4673 11.9182 36.7711 12.3435C37.0952 12.7486 37.561 13.0828 38.1686 13.346C38.7761 13.6093 39.5356 13.8422 40.447 14.0447L41.571 14.3182C42.9481 14.6219 44.1633 15.0169 45.2164 15.5029C46.2695 15.9687 47.0999 16.6067 47.7075 17.4168C48.315 18.2269 48.6188 19.2699 48.6188 20.5458C48.6188 21.8217 48.2948 22.9356 47.6467 23.8874C47.0189 24.8393 46.1176 25.5886 44.943 26.1355C43.7684 26.662 42.3811 26.9253 40.7811 26.9253ZM52.1541 26.5V5.23493H55.2831V26.5H52.1541ZM59.9268 26.5V11.5233H63.0558V26.5H59.9268ZM61.5065 9.48795C60.8989 9.48795 60.3825 9.29555 59.9572 8.91075C59.5521 8.5057 59.3496 7.98926 59.3496 7.36144C59.3496 6.73361 59.5521 6.2273 59.9572 5.84251C60.3825 5.43746 60.8989 5.23493 61.5065 5.23493C62.1343 5.23493 62.6508 5.43746 63.0558 5.84251C63.4609 6.2273 63.6634 6.73361 63.6634 7.36144C63.6634 7.98926 63.4609 8.5057 63.0558 8.91075C62.6508 9.29555 62.1343 9.48795 61.5065 9.48795ZM73.3195 26.5C72.4082 26.5 71.6791 26.2266 71.1323 25.6798C70.6057 25.133 70.3424 24.4039 70.3424 23.4925V14.1663H66.2109V11.5233H70.3424V6.57159H73.4714V11.5233H77.9371V14.1663H73.4714V22.9457C73.4714 23.5533 73.7549 23.8571 74.322 23.8571H77.451V26.5H73.3195ZM81.6131 26.5V11.5233H84.6814V13.2853H85.1674C85.4105 12.6575 85.7953 12.2018 86.3218 11.9182C86.8686 11.6145 87.537 11.4626 88.3268 11.4626H90.1192V14.2878H88.2053C87.1927 14.2878 86.3623 14.5713 85.7143 15.1384C85.0662 15.6852 84.7421 16.5358 84.7421 17.6902V26.5H81.6131ZM99.6927 26.9253C98.1738 26.9253 96.8472 26.6114 95.7131 25.9836C94.579 25.3355 93.6879 24.4343 93.0398 23.2799C92.412 22.1052 92.098 20.7483 92.098 19.2091V18.8446C92.098 17.2851 92.412 15.9282 93.0398 14.7738C93.6676 13.5992 94.5385 12.698 95.6523 12.0701C96.7865 11.4221 98.0928 11.098 99.5712 11.098C101.009 11.098 102.265 11.4221 103.338 12.0701C104.432 12.698 105.282 13.5789 105.89 14.7131C106.497 15.8472 106.801 17.1737 106.801 18.6927V19.8775H95.2878C95.3283 21.1939 95.7637 22.247 96.5941 23.0368C97.4447 23.8064 98.4978 24.1912 99.7535 24.1912C100.928 24.1912 101.809 23.9279 102.396 23.4014C103.004 22.8748 103.47 22.2672 103.794 21.5787L106.376 22.9153C106.092 23.4824 105.677 24.0798 105.13 24.7077C104.604 25.3355 103.905 25.862 103.034 26.2873C102.163 26.7127 101.05 26.9253 99.6927 26.9253ZM95.3182 17.4775H103.611C103.53 16.3434 103.125 15.4624 102.396 14.8346C101.667 14.1865 100.715 13.8625 99.5408 13.8625C98.3662 13.8625 97.4042 14.1865 96.6548 14.8346C95.9258 15.4624 95.4802 16.3434 95.3182 17.4775ZM117.433 26.9253C115.914 26.9253 114.588 26.6114 113.454 25.9836C112.32 25.3355 111.428 24.4343 110.78 23.2799C110.153 22.1052 109.839 20.7483 109.839 19.2091V18.8446C109.839 17.2851 110.153 15.9282 110.78 14.7738C111.408 13.5992 112.279 12.698 113.393 12.0701C114.527 11.4221 115.833 11.098 117.312 11.098C118.75 11.098 120.005 11.4221 121.079 12.0701C122.172 12.698 123.023 13.5789 123.631 14.7131C124.238 15.8472 124.542 17.1737 124.542 18.6927V19.8775H113.028C113.069 21.1939 113.504 22.247 114.335 23.0368C115.185 23.8064 116.238 24.1912 117.494 24.1912C118.669 24.1912 119.55 23.9279 120.137 23.4014C120.745 22.8748 121.21 22.2672 121.534 21.5787L124.117 22.9153C123.833 23.4824 123.418 24.0798 122.871 24.7077C122.344 25.3355 121.646 25.862 120.775 26.2873C119.904 26.7127 118.79 26.9253 117.433 26.9253ZM113.059 17.4775H121.352C121.271 16.3434 120.866 15.4624 120.137 14.8346C119.408 14.1865 118.456 13.8625 117.281 13.8625C116.107 13.8625 115.145 14.1865 114.395 14.8346C113.666 15.4624 113.221 16.3434 113.059 17.4775Z" fill="#0F766E"/>
</svg>
