<svg width="26" height="32" viewBox="0 0 26 32" fill="none" xmlns="http://www.w3.org/2000/svg">
<path d="M6.99997 8H19C19.4045 8 19.769 7.7565 19.924 7.383C20.079 7.009 19.9935 6.5795 19.707 6.293L13.707 0.293C13.5115 0.0975 13.256 0 13 0C12.744 0 12.4885 0.0975 12.293 0.293L6.29297 6.293C6.00697 6.579 5.92147 7.009 6.07597 7.383C6.23097 7.7565 6.59547 8 6.99997 8Z" fill="#2DD4BF"/>
<path d="M4.99997 14H21C21.4045 14 21.769 13.7565 21.924 13.383C22.079 13.009 21.9935 12.5795 21.707 12.293L18.4345 9.02049H7.56547L4.29297 12.293C4.00697 12.579 3.92147 13.009 4.07597 13.383C4.23097 13.7565 4.59547 14 4.99997 14Z" fill="#2DD4BF"/>
<path d="M11 31.5C11 31.7765 11.2235 32 11.5 32H14.5C14.7765 32 15 31.7765 15 31.5V27H11V31.5Z" fill="#2DD4BF"/>
<path d="M25.707 24.293L22.414 21H3.58597L0.292967 24.293C0.00696704 24.579 -0.0785329 25.009 0.075967 25.383C0.230967 25.7565 0.595467 26 0.999967 26H25C25.4045 26 25.769 25.7565 25.924 25.383C26.0785 25.009 25.993 24.579 25.707 24.293Z" fill="#2DD4BF"/>
<path d="M2.99997 20H23C23.4045 20 23.769 19.7565 23.924 19.383C24.079 19.009 23.9935 18.5795 23.707 18.293L20.414 15H5.58597L2.29297 18.293C2.00697 18.579 1.92147 19.009 2.07597 19.383C2.23097 19.7565 2.59547 20 2.99997 20Z" fill="#2DD4BF"/>
</svg>
